<svg width="20" height="20" viewBox="0 0 20 20" fill="none" xmlns="http://www.w3.org/2000/svg">
<path d="M17.9994 10.0228H9.86331V1.97814C9.86331 1.87927 9.7815 1.79837 9.6815 1.79837H9.09061C7.89679 1.79644 6.71436 2.02793 5.61135 2.47952C4.50835 2.93111 3.50654 3.5939 2.66356 4.42974C1.83338 5.24805 1.17191 6.21805 0.715898 7.28582C0.241381 8.39328 -0.00211181 9.58407 1.37976e-05 10.7868C-0.0019411 11.9672 0.232179 13.1364 0.688904 14.227C1.14563 15.3176 1.81594 16.3081 2.66129 17.1417C3.49535 17.9663 4.46804 18.6158 5.54982 19.0674C6.66987 19.5366 7.87419 19.7774 9.09061 19.7753C10.2844 19.7772 11.4669 19.5457 12.5699 19.0941C13.6729 18.6425 14.6747 17.9797 15.5177 17.1439C16.3517 16.3192 17.0085 15.3574 17.4653 14.2878C17.9398 13.1804 18.1833 11.9896 18.1812 10.7868V10.2026C18.1812 10.1037 18.0994 10.0228 17.9994 10.0228ZM14.4018 16.0855C13.6981 16.7759 12.8635 17.3222 11.9458 17.6932C11.0282 18.0641 10.0456 18.2524 9.05425 18.2472C7.05204 18.2382 5.17029 17.463 3.75443 16.063C2.32948 14.6541 1.54542 12.78 1.54542 10.7868C1.54542 8.79363 2.32948 6.91954 3.75443 5.5106C4.9953 4.28368 6.59297 3.53539 8.31791 3.36461V11.5508H16.5972C16.4222 13.2654 15.6586 14.8541 14.4018 16.0855ZM19.9993 8.77341L19.9402 8.13972C19.7471 6.07013 18.8175 4.11739 17.3221 2.64329C15.8257 1.16648 13.8548 0.252506 11.7496 0.0591074L11.1065 0.000682509C10.9996 -0.00830594 10.9087 0.0725901 10.9087 0.178204V8.80936C10.9087 8.90823 10.9905 8.98913 11.0905 8.98913L19.8175 8.96666C19.9243 8.96666 20.0084 8.87677 19.9993 8.77341ZM12.4496 7.46559V1.6995C13.8812 1.99578 15.195 2.69681 16.2313 3.71741C17.2699 4.74209 17.9812 6.04541 18.2767 7.44986L12.4496 7.46559Z" fill="#6C757D"/>
</svg>
