<svg width="19" height="20" viewBox="0 0 19 20" fill="none" xmlns="http://www.w3.org/2000/svg">
<path d="M18.1533 16.1382C17.6794 15.0282 16.9915 14.0198 16.1282 13.1694C15.2675 12.3166 14.2479 11.6366 13.1257 11.1671C13.1156 11.1621 13.1056 11.1596 13.0955 11.1546C14.6609 10.0367 15.6785 8.21568 15.6785 6.16114C15.6785 2.75761 12.8895 0 9.4473 0C6.00509 0 3.21614 2.75761 3.21614 6.16114C3.21614 8.21568 4.23373 10.0367 5.79906 11.1571C5.78901 11.1621 5.77896 11.1646 5.76891 11.1696C4.64328 11.6391 3.63323 12.3123 2.76639 13.1719C1.90385 14.023 1.21615 15.0311 0.741269 16.1407C0.274742 17.227 0.023133 18.3916 6.28291e-05 19.5716C-0.000607786 19.5981 0.0040958 19.6245 0.0138966 19.6491C0.0236973 19.6738 0.0383969 19.6963 0.0571291 19.7153C0.0758614 19.7343 0.0982473 19.7494 0.122968 19.7597C0.147688 19.77 0.174243 19.7753 0.201068 19.7753H1.70861C1.81916 19.7753 1.9071 19.6883 1.90961 19.5815C1.95986 17.6636 2.73876 15.8674 4.11564 14.506C5.54026 13.0974 7.43222 12.3223 9.4473 12.3223C11.4624 12.3223 13.3543 13.0974 14.779 14.506C16.1558 15.8674 16.9347 17.6636 16.985 19.5815C16.9875 19.6908 17.0754 19.7753 17.186 19.7753H18.6935C18.7204 19.7753 18.7469 19.77 18.7716 19.7597C18.7963 19.7494 18.8187 19.7343 18.8375 19.7153C18.8562 19.6963 18.8709 19.6738 18.8807 19.6491C18.8905 19.6245 18.8952 19.5981 18.8945 19.5716C18.8694 18.3841 18.6207 17.2288 18.1533 16.1382ZM9.4473 10.4342C8.29403 10.4342 7.2086 9.9895 6.39202 9.18209C5.57544 8.37468 5.12569 7.30145 5.12569 6.16114C5.12569 5.02083 5.57544 3.9476 6.39202 3.1402C7.2086 2.33279 8.29403 1.88809 9.4473 1.88809C10.6006 1.88809 11.686 2.33279 12.5026 3.1402C13.3192 3.9476 13.7689 5.02083 13.7689 6.16114C13.7689 7.30145 13.3192 8.37468 12.5026 9.18209C11.686 9.9895 10.6006 10.4342 9.4473 10.4342Z" fill="#6C757D"/>
</svg>
