<svg width="20" height="20" viewBox="0 0 20 20" fill="none" xmlns="http://www.w3.org/2000/svg">
<path d="M18.5507 5.06324H14.9855C15.314 4.55214 15.5072 3.9455 15.5072 3.29588C15.5072 1.47837 14.0121 0 12.1739 0C11.1739 0 10.2729 0.439451 9.66183 1.13206C9.05072 0.439451 8.14976 0 7.14976 0C5.31159 0 3.81642 1.47837 3.81642 3.29588C3.81642 3.9455 4.00725 4.55214 4.33816 5.06324H0.772947C0.345411 5.06324 0 5.40477 0 5.8275V10.6041C0 10.7092 0.0869565 10.7952 0.193237 10.7952H1.15942V19.011C1.15942 19.4338 1.50483 19.7753 1.93237 19.7753H17.3913C17.8188 19.7753 18.1642 19.4338 18.1642 19.011V10.7952H19.1304C19.2367 10.7952 19.3237 10.7092 19.3237 10.6041V5.8275C19.3237 5.40477 18.9783 5.06324 18.5507 5.06324ZM10.4831 3.29588C10.4831 2.37399 11.2415 1.62406 12.1739 1.62406C13.1063 1.62406 13.8647 2.37399 13.8647 3.29588C13.8647 4.21777 13.1063 4.9677 12.1739 4.9677H10.4831V3.29588ZM7.14976 1.62406C8.08212 1.62406 8.84058 2.37399 8.84058 3.29588V4.9677H7.14976C6.21739 4.9677 5.45894 4.21777 5.45894 3.29588C5.45894 2.37399 6.21739 1.62406 7.14976 1.62406ZM1.64251 9.17114V6.68729H8.84058V9.17114H1.64251ZM2.80193 10.7952H8.84058V18.1512H2.80193V10.7952ZM16.5217 18.1512H10.4831V10.7952H16.5217V18.1512ZM17.6812 9.17114H10.4831V6.68729H17.6812V9.17114Z" fill="#6C757D"/>
</svg>
